<svg width="1342" height="278" viewBox="0 0 1342 278" fill="none" xmlns="http://www.w3.org/2000/svg">
<g style="mix-blend-mode:difference">
<path d="M217.106 263.48V266H161.666V263.48C171.026 254.12 168.146 241.52 158.066 215.24L140.426 169.52H51.1461L41.4261 196.88C29.9061 229.64 28.1061 247.28 43.2261 263.48V266H0.746118V263.48C16.2261 247.28 26.6661 230.72 38.5461 196.88L92.5461 44.96L80.6661 14H109.106L179.306 196.88C194.066 232.88 203.426 247.28 217.106 263.48ZM52.2261 166.64H139.346L93.9861 48.92L52.2261 166.64ZM427.38 201.56C448.62 238.64 460.14 250.88 474.18 263.48V266H418.74V263.48C428.1 254.12 420.54 241.16 406.5 216.32L367.98 149C362.58 149.36 357.18 149.72 351.78 149.72H318.3V242.24C318.3 254.84 320.82 260.24 326.22 263.48C326.22 264.2 326.22 266 326.22 266H281.94C281.94 266 281.94 264.2 281.94 263.48C287.34 260.24 289.86 254.84 289.86 242.24V38.12C289.86 25.16 287.34 20.12 281.94 16.88C281.94 16.16 281.94 14 281.94 14H351.78C407.58 14 457.98 34.88 457.98 82.04C457.98 115.88 430.98 136.4 394.98 144.68L427.38 201.56ZM351.78 146.84C419.82 146.84 429.54 109.76 429.54 82.04C429.54 53.96 420.18 16.88 351.78 16.88H318.3V146.84H351.78ZM659.023 10.4C730.303 10.4 789.703 68 789.703 139.28C789.703 210.2 730.303 268.16 659.023 268.16C587.743 268.16 528.343 210.2 528.343 139.28C528.343 68 587.743 10.4 659.023 10.4ZM695.743 259.52C755.863 241.16 774.583 173.48 755.143 109.76C735.703 46.4 682.423 0.679983 622.303 19.04C562.183 37.4 543.463 105.08 562.903 168.44C582.343 232.16 635.623 277.88 695.743 259.52ZM1060.11 16.88C1054.71 20.12 1052.19 25.52 1052.19 38.12V242.24C1052.19 254.84 1054.71 260.24 1060.11 263.48C1060.11 264.2 1060.11 266 1060.11 266H1015.47C1015.47 266 1015.47 264.2 1015.47 263.48C1021.23 260.24 1023.75 254.84 1023.75 242.24V118.04H898.471V242.24C898.471 254.84 900.991 260.24 906.391 263.48C906.391 264.2 906.391 266 906.391 266H861.751C861.751 266 861.751 264.2 861.751 263.48C867.511 260.24 870.031 254.84 870.031 242.24V38.12C870.031 25.52 867.511 20.12 861.751 16.88C861.751 16.16 861.751 14 861.751 14H906.391C906.391 14 906.391 16.16 906.391 16.88C900.991 20.12 898.471 25.52 898.471 38.12V115.52H1023.75V38.12C1023.75 25.52 1021.23 20.12 1015.47 16.88C1015.47 16.16 1015.47 14 1015.47 14H1060.11C1060.11 14 1060.11 16.16 1060.11 16.88ZM1341.22 263.48V266H1285.78V263.48C1295.14 254.12 1292.26 241.52 1282.18 215.24L1264.54 169.52H1175.26L1165.54 196.88C1154.02 229.64 1152.22 247.28 1167.34 263.48V266H1124.86V263.48C1140.34 247.28 1150.78 230.72 1162.66 196.88L1216.66 44.96L1204.78 14H1233.22L1303.42 196.88C1318.18 232.88 1327.54 247.28 1341.22 263.48ZM1176.34 166.64H1263.46L1218.1 48.92L1176.34 166.64Z" fill="white"/>
</g>
</svg>
